<svg width="815" height="864" viewBox="0 0 815 864" fill="none" xmlns="http://www.w3.org/2000/svg">
<path d="M22 421.802L121 465.802V587.802" stroke="white" stroke-width="42.31" stroke-linecap="round" stroke-linejoin="round"/>
<path d="M415 775.802C404 794.802 389 811.802 372 825.802C296 885.802 187 873.802 127 797.802C67 722.802 79.0001 612.802 155 552.802" stroke="white" stroke-width="42.31" stroke-linecap="round" stroke-linejoin="round"/>
<path fill-rule="evenodd" clip-rule="evenodd" d="M410 569.802C410 569.802 443 539.802 419 519.802C419 519.802 339 450.802 288 380.802C288 380.802 228 353.802 205 412.802L185 601.802C185 601.802 180 641.802 225 646.802L403 645.802L485 834.802C493 853.802 545 850.802 540 808.802L457 591.802C457 591.802 449 566.802 410 569.802Z" stroke="white" stroke-width="19.99" stroke-linecap="round" stroke-linejoin="round"/>
<path fill-rule="evenodd" clip-rule="evenodd" d="M301 500.802L300 574.802L381 571.802L301 500.802Z" stroke="white" stroke-width="19.99" stroke-linecap="round" stroke-linejoin="round"/>
<path d="M281 352.802C318.003 352.802 348 322.805 348 285.802C348 248.799 318.003 218.802 281 218.802C243.997 218.802 214 248.799 214 285.802C214 322.805 243.997 352.802 281 352.802Z" stroke="white" stroke-width="19.99" stroke-linecap="round" stroke-linejoin="round"/>
</svg>
