<svg width="13" height="12" viewBox="0 0 13 12" fill="none" xmlns="http://www.w3.org/2000/svg">
<path fill-rule="evenodd" clip-rule="evenodd" d="M0.420697 4.04921H4.62767C5.67163 4.04921 6.5208 3.14084 6.5208 2.0246C6.5208 0.908372 5.67163 0 4.62767 0C3.58371 0 2.73453 0.908372 2.73453 2.0246C2.73453 2.27296 2.923 2.47452 3.15523 2.47452C3.38745 2.47452 3.57592 2.27296 3.57592 2.0246C3.57592 1.4044 4.04774 0.899824 4.62767 0.899824C5.2076 0.899824 5.67941 1.4044 5.67941 2.0246C5.67941 2.64481 5.2076 3.14938 4.62767 3.14938H0.420697C0.188472 3.14938 0 3.35094 0 3.5993C0 3.84765 0.188472 4.04921 0.420697 4.04921ZM12.2002 3.59913C12.2002 5.08766 11.0679 6.2986 9.67603 6.2986H0.420697C0.188472 6.2986 0 6.09704 0 5.84869C0 5.60034 0.188472 5.39878 0.420697 5.39878H9.67603C10.6039 5.39878 11.3588 4.59141 11.3588 3.59913C11.3588 2.60685 10.6039 1.79948 9.67603 1.79948C8.74818 1.79948 7.99324 2.60685 7.99324 3.59913C7.99324 3.84748 7.80477 4.04904 7.57255 4.04904C7.34032 4.04904 7.15185 3.84748 7.15185 3.59913C7.15185 2.1106 8.28415 0.899658 9.67603 0.899658C11.0679 0.899658 12.2002 2.1106 12.2002 3.59913ZM0.420697 7.64862H7.57254C8.6165 7.64862 9.46568 8.55699 9.46568 9.67322C9.46568 10.7895 8.6165 11.6978 7.57254 11.6978C6.52859 11.6978 5.67941 10.7895 5.67941 9.67322C5.67941 9.42487 5.86788 9.22331 6.1001 9.22331C6.33233 9.22331 6.5208 9.42487 6.5208 9.67322C6.5208 10.2934 6.99261 10.798 7.57254 10.798C8.15248 10.798 8.62429 10.2934 8.62429 9.67322C8.62429 9.05302 8.15248 8.54844 7.57254 8.54844H0.420697C0.188472 8.54844 0 8.34688 0 8.09853C0 7.85018 0.188472 7.64862 0.420697 7.64862Z" fill="white"/>
</svg>
