<svg fill="none" height="125" viewBox="0 0 100 125" width="100" xmlns="http://www.w3.org/2000/svg"><g fill="#fff"><path d="m83.5 60.5999c0-3.2-2.6-5.6999-5.7-5.6999-2.1 0-3.9 1.0999-4.9 2.6999v-.1999c0-3.2-2.6-5.8001-5.8-5.8001-2 0-3.9 1.1-4.9 2.7v-.0999c0-3.2-2.6-5.8-5.8-5.8-2 0-3.9 1.0999-4.9 2.6999v-6.3c1.6-.7 3-1.6999 4.3-2.8999 2.7-2.7 4.2-6.3 4.2-10 0-3.8-1.5-7.4001-4.2-10-2.7-2.7001-6.3-4.2-10-4.2s-7.4 1.4999-10 4.2c-2.7 2.7-4.2 6.2999-4.2 10 0 3.7999 1.5 7.4 4.2 10 1.3 1.3 2.7 2.1999 4.3 2.8999v24.7001c0 .3-.2.5999-.5.6999s-.6.1001-.9-.1999l-5.8-5.8001c-2-2-5.1-2.2999-7.4-.6999-1.4.9-2.3 2.4-2.5 4s.2 3.3 1.3 4.5l14.5 17.5c4.1 5 10.2 7.8 16.6 7.8h9.1c5.1 0 9.8-2 13.4-5.6s5.6-8.3 5.6-13.4zm-45.2-21.1999c-2-2-3.1-4.7001-3.1-7.6001s1.1-5.4999 3.1-7.5999 4.7-3.1 7.6-3.1 5.5 1.1 7.6 3.1c2 2 3.1 4.6999 3.1 7.5999s-1.1 5.5001-3.1 7.6001c-.6.6-1.2.9999-1.8 1.3999v-9c0-1.5-.6-2.9999-1.7-4.0999s-2.5-1.7-4.1-1.7c-3.2 0-5.7 2.5999-5.7 5.7999v9c-.7-.4-1.3-.8999-1.9-1.3999z"/><path d="m45.9 12.8c1 0 1.8-.8 1.8-1.8v-6.7c0-1-.8-1.8-1.8-1.8s-1.8.8-1.8 1.8v6.7c0 1 .8 1.8 1.8 1.8z"/><path d="m29.9 18.4c.3.3.8.5 1.2.5.5 0 .9-.2 1.2-.5.7-.7.7-1.8 0-2.5l-4.8-4.8c-.7-.7-1.8-.7-2.5 0s-.7 1.8 0 2.5z"/><path d="m26.8 31.8c0-1-.8-1.8-1.8-1.8h-6.8c-1 0-1.8.8-1.8 1.8s.8 1.8 1.8 1.8h6.8c1 0 1.8-.8 1.8-1.8z"/><path d="m64.9 31.8c0 1 .8 1.8 1.8 1.8h6.8c1 0 1.8-.8 1.8-1.8s-.8-1.8-1.8-1.8h-6.8c-1 .1-1.8.9-1.8 1.8z"/><path d="m60.6 18.9c.5 0 .9-.2 1.2-.5l4.8-4.8c.7-.7.7-1.8 0-2.5s-1.8-.7-2.5 0l-4.8 4.8c-.7.7-.7 1.8 0 2.5.4.3.8.5 1.3.5z"/></g></svg>