<svg width="100" height="125" viewBox="0 0 100 125" fill="none" xmlns="http://www.w3.org/2000/svg">
<path d="M24.868 52.6752C21.968 55.5752 20.268 58.9752 20.968 63.1752C21.568 66.9752 24.568 69.9752 28.268 70.5752C32.468 71.2752 36.668 69.2752 39.468 66.1752C43.168 62.0752 44.168 56.7752 43.168 51.4752C42.568 48.2752 37.768 49.6752 38.368 52.7752C39.368 58.0752 36.368 65.7752 29.868 65.6752C27.368 65.6752 25.768 63.7752 25.768 61.2752C25.768 58.4752 27.768 56.7752 29.568 54.9752C31.368 53.1752 33.068 51.1752 33.068 48.4752C32.968 44.9752 30.268 41.7752 28.268 38.9752C23.268 31.9752 32.468 23.8752 39.568 24.2752C44.068 24.4752 48.168 27.3752 49.968 31.4752C52.168 36.5752 50.568 42.1752 46.468 45.7752C44.068 47.8752 47.568 51.4752 49.968 49.2752C58.868 41.3752 57.368 26.4752 46.468 21.0752C36.568 16.1752 24.168 21.9752 22.068 32.9752C21.668 35.2752 21.568 37.4752 22.668 39.6752C23.668 41.5752 25.168 43.2752 26.368 45.0752C27.168 46.3752 28.468 47.8752 27.768 49.4752C27.168 50.8752 25.768 51.7752 24.868 52.6752Z" fill="white"/>
<path d="M48.268 82.3751C48.368 82.1751 48.468 81.8751 48.468 81.6751C48.468 81.6751 48.468 81.6751 48.468 81.5751C48.768 80.2751 48.968 78.9751 49.068 77.5751C49.068 77.4751 49.068 77.4751 49.068 77.4751C49.868 71.8751 51.268 66.4751 55.268 62.2751C58.168 59.2751 61.468 56.8751 63.868 53.3751C66.568 49.5751 68.268 45.1751 68.968 40.5751C71.468 23.5751 59.268 7.57511 42.168 5.57511C32.168 4.37511 22.168 7.97512 15.768 15.8751C13.768 18.3751 17.268 21.8751 19.268 19.3751C29.568 6.77512 49.868 7.67513 59.368 20.8751C63.968 27.2751 65.468 35.4751 63.368 43.0751C62.268 47.0751 60.068 50.8751 57.168 53.8751C54.868 56.1751 52.268 58.0751 50.168 60.6751C45.568 66.3751 44.568 73.6751 43.668 80.7751C42.268 85.8751 37.668 89.7751 32.068 89.7751C25.368 89.7751 20.168 84.2751 20.068 77.7751C19.968 74.5751 14.968 74.5751 15.068 77.7751C15.268 87.0751 22.668 94.7751 32.068 94.7751C39.768 94.6751 46.168 89.3751 48.268 82.3751Z" fill="white"/>
<path d="M61.868 77.3751C58.668 77.2751 58.668 82.2751 61.868 82.3751C69.168 82.6751 76.268 79.5751 80.268 73.2751C84.568 66.4751 83.768 58.1751 80.568 51.1751C79.268 48.2751 74.968 50.7751 76.268 53.6751C78.668 59.0751 79.268 65.4751 75.968 70.6751C72.868 75.5751 67.368 77.5751 61.868 77.3751Z" fill="white"/>
<path d="M85.168 47.7749C89.968 57.4749 90.768 68.875 84.368 78.075C79.568 84.875 71.268 89.275 62.868 88.375C59.668 88.075 59.668 93.075 62.868 93.375C73.068 94.475 82.968 88.775 88.668 80.575C96.168 69.875 95.068 56.4749 89.468 45.2749C88.068 42.3749 83.668 44.8749 85.168 47.7749Z" fill="white"/>
<path d="M65.868 59.8751C66.768 61.2751 67.168 63.075 66.468 64.675C65.668 66.575 63.768 66.975 61.868 66.875C58.668 66.675 58.668 71.675 61.868 71.875C69.668 72.275 74.468 63.875 70.168 57.375C68.368 54.675 64.068 57.1751 65.868 59.8751Z" fill="white"/>
</svg>
