<svg width="100" height="125" viewBox="0 0 100 125" fill="none" xmlns="http://www.w3.org/2000/svg">
<path d="M11.9306 62H23.5834C25.3875 68.5421 28.6494 74.5908 33.1246 79.6924C37.5998 84.794 43.1721 88.8161 49.4235 91.457C55.6749 94.0978 62.4431 95.2889 69.2204 94.9408C75.9978 94.5928 82.6084 92.7147 88.5564 89.4473C88.672 89.382 88.7736 89.2944 88.8551 89.1895C88.9366 89.0846 88.9963 88.9645 89.031 88.8363C89.0656 88.708 89.0743 88.5742 89.0567 88.4425C89.0391 88.3109 88.9954 88.1841 88.9283 88.0694L84.8944 81.1478C84.763 80.9243 84.5493 80.7612 84.2991 80.6933C84.0489 80.6255 83.7821 80.6583 83.5558 80.7849C79.1384 83.1704 74.2591 84.5768 69.2496 84.9085C64.2402 85.2402 59.218 84.4895 54.5246 82.7072C49.8312 80.925 45.5765 78.1531 42.0498 74.58C38.5232 71.0069 35.8072 66.7163 34.0865 62H64.9393C65.2033 62 65.4566 61.8951 65.6433 61.7084C65.83 61.5216 65.9349 61.2684 65.9349 61.0043V54.9956C65.9349 54.7316 65.83 54.4783 65.6433 54.2916C65.4566 54.1049 65.2033 54 64.9393 54H32.1813C31.8528 51.3434 31.8528 48.6565 32.1813 46H64.9393C65.2033 46 65.4566 45.8951 65.6433 45.7084C65.83 45.5216 65.9349 45.2684 65.9349 45.0043V38.9956C65.9349 38.7316 65.83 38.4783 65.6433 38.2916C65.4566 38.1049 65.2033 38 64.9393 38H34.0872C35.8029 33.28 38.5162 28.9854 42.042 25.409C45.5678 21.8325 49.8232 19.0583 54.5183 17.2754C59.2134 15.4926 64.2376 14.7429 69.2486 15.0777C74.2596 15.4124 79.1396 16.8236 83.5558 19.2151C83.7821 19.3416 84.0489 19.3745 84.2991 19.3067C84.5493 19.2388 84.763 19.0757 84.8944 18.8522L88.9283 11.9305C88.9954 11.8159 89.0391 11.6891 89.0567 11.5574C89.0743 11.4258 89.0656 11.2919 89.031 11.1637C88.9963 11.0355 88.9366 10.9154 88.8551 10.8105C88.7736 10.7056 88.672 10.6179 88.5564 10.5527C82.607 7.29269 75.9975 5.42045 69.2223 5.07607C62.447 4.73169 55.6817 5.92409 49.4325 8.56404C43.1833 11.204 37.612 15.2231 33.1357 20.3206C28.6594 25.4181 25.394 31.462 23.5837 38H11.9306C11.6665 38 11.4133 38.1049 11.2266 38.2916C11.0398 38.4783 10.9349 38.7316 10.9349 38.9956V45.0043C10.9349 45.2684 11.0398 45.5216 11.2266 45.7084C11.4133 45.8951 11.6665 46 11.9306 46H22.1367C22.0175 47.3247 21.9349 48.6563 21.9349 50C21.9349 51.3437 22.0174 52.6753 22.1366 54H11.9306C11.6665 54 11.4133 54.1049 11.2266 54.2916C11.0398 54.4783 10.9349 54.7316 10.9349 54.9956V61.0043C10.9349 61.2684 11.0398 61.5216 11.2266 61.7084C11.4133 61.8951 11.6665 62 11.9306 62V62Z" fill="white"/>
</svg>
