<svg width="102" height="67" viewBox="0 0 102 67" fill="none" xmlns="http://www.w3.org/2000/svg">
<path d="M101.281 43.335C101.051 43.132 95.5291 38.3038 86.5775 33.428C78.2908 28.914 65.3913 23.5332 51 23.5332C36.6087 23.5332 23.7095 28.914 15.4225 33.428C6.47113 38.3038 0.949362 43.132 0.71859 43.335C0.261922 43.7372 0 44.3166 0 44.9254C0 45.5342 0.26171 46.1134 0.71859 46.5158C0.949362 46.7188 6.47113 51.547 15.4225 56.4229C23.7092 60.9368 36.6087 66.3176 51 66.3176C65.3915 66.3176 78.2908 60.9366 86.5775 56.4229C95.5291 51.547 101.051 46.7188 101.281 46.5158C101.738 46.1136 102 45.5342 102 44.9254C102 44.3166 101.739 43.7372 101.281 43.335ZM35.8132 44.9252C35.8132 36.5509 42.6259 29.7382 51 29.7382C59.3743 29.7382 66.187 36.5509 66.187 44.9252C66.187 53.2995 59.3745 60.112 51.0002 60.112C42.6261 60.112 35.8132 53.2995 35.8132 44.9252ZM17.5469 37.097C23.2036 34.0243 31.1194 30.5269 40.1499 28.8202C34.9802 32.3142 31.575 38.2297 31.575 44.9254C31.575 51.6212 34.9802 57.5367 40.1499 61.0307C31.1194 59.3237 23.2036 55.8263 17.5469 52.7536C12.009 49.746 7.78943 46.7086 5.48489 44.9254C7.78985 43.1418 12.0096 40.1044 17.5469 37.097ZM61.8399 61.0372C67.0152 57.5441 70.4252 51.6254 70.4252 44.9254C70.4252 38.2297 67.0198 32.3144 61.8503 28.8202C70.8809 30.5269 78.7966 34.0243 84.4536 37.097C89.9893 40.1036 94.2076 43.1401 96.5134 44.9237C91.6698 48.661 78.359 57.9221 61.8399 61.0372Z" fill="white"/>
<path d="M57.4634 42.8061C56.8781 42.8061 56.3484 43.0432 55.9648 43.4268C55.5815 43.8103 55.3443 44.3401 55.3443 44.9252C55.3443 47.3206 53.3954 49.2693 51.0002 49.2693C48.6047 49.2693 46.656 47.3206 46.656 44.9252C46.656 42.5297 48.6047 40.581 51.0002 40.581C51.5855 40.581 52.1152 40.3439 52.4986 39.9601C52.8824 39.5767 53.1195 39.047 53.1195 38.4619C53.1195 37.2915 52.1703 36.3428 51.0004 36.3428C46.268 36.3428 42.418 40.1928 42.418 44.9252C42.418 49.6576 46.268 53.5076 51.0004 53.5076C55.733 53.5076 59.5828 49.6576 59.5828 44.9252C59.5826 43.7548 58.6334 42.8061 57.4634 42.8061Z" fill="white"/>
<path d="M51.0002 17.1648C52.1704 17.1648 53.1193 16.2161 53.1193 15.0457V2.11911C53.1193 0.948726 52.1702 0 51.0002 0C49.83 0 48.8811 0.948726 48.8811 2.11911V15.0457C48.8811 16.2161 49.8298 17.1648 51.0002 17.1648Z" fill="white"/>
<path d="M67.2788 20.7087C67.6041 20.8893 67.9567 20.9749 68.3044 20.9749C69.0499 20.9749 69.7726 20.5809 70.1595 19.8827L76.4266 8.57681C76.9941 7.55307 76.6241 6.26338 75.6005 5.69609C74.5774 5.12859 73.2873 5.49838 72.7198 6.52212L66.4528 17.828C65.8853 18.8515 66.2553 20.1412 67.2788 20.7087Z" fill="white"/>
<path d="M31.8407 19.8829C32.2277 20.5809 32.9505 20.9751 33.696 20.9751C34.0436 20.9751 34.3962 20.8895 34.7215 20.7089C35.7452 20.1416 36.115 18.8517 35.5475 17.8282L29.2806 6.52231C28.7131 5.49856 27.423 5.12836 26.3999 5.69628C25.3762 6.26356 25.0064 7.55347 25.5739 8.577L31.8407 19.8829Z" fill="white"/>
</svg>
