<svg width="100" height="125" viewBox="0 0 100 125" fill="none" xmlns="http://www.w3.org/2000/svg">
<path fill-rule="evenodd" clip-rule="evenodd" d="M71.8062 60.3459C73.962 60.3459 75.7164 58.5915 75.7164 56.4357C75.7164 54.2808 73.962 52.5264 71.8062 52.5264C69.6503 52.5264 67.8959 54.2808 67.8959 56.4357C67.8959 58.5915 69.6503 60.3459 71.8062 60.3459ZM90.2423 64.9609H68.0704L60.4689 56.4357L68.0704 47.9115H90.2423V64.9609ZM91.0352 43.1547V23.7264C91.0352 22.4151 89.9677 21.3476 88.6564 21.3476H84.0969V12.8233C84.0969 11.512 83.0294 10.4445 81.7181 10.4445H70.6336C69.6741 10.4445 68.8148 11.0164 68.4421 11.8996C68.1318 12.637 68.2101 13.4726 68.6512 14.1387C69.0933 14.8047 69.8347 15.2022 70.6336 15.2022H79.3392V21.3476H66.0394C65.0809 21.3476 64.2206 21.9195 63.8479 22.8026C63.5377 23.5391 36.054 89.7952 36.496 90.4612C36.9391 91.1273 37.6795 91.5238 38.4784 91.5238H88.6564C89.9677 91.5238 91.0352 90.4573 91.0352 89.1449V69.7176H92.6211C93.9325 69.7176 95 68.6511 95 67.3388V45.5326C95 44.2213 93.9325 43.1547 92.6211 43.1547H91.0352ZM64.9085 6.18932C64.6141 6.06443 64.3039 6 63.9857 6C63.0262 6 62.1649 6.57192 61.7922 7.45705L25.8933 92.6646C25.6465 93.2504 25.6425 93.8967 25.8824 94.4855C26.1222 95.0742 26.5762 95.5341 27.162 95.7809C27.4554 95.9048 27.7666 95.9673 28.0848 95.9673C29.0443 95.9673 29.9056 95.3964 30.2783 94.5122L66.1762 9.30363C66.6867 8.09438 66.1177 6.6978 64.9085 6.18932ZM51.1904 24.6502C51.1904 24.6502 51.4224 23.0772 50.9803 22.4111C50.5382 21.745 49.7978 21.3476 48.9979 21.3476H12.7769C11.1117 21.3476 9.75771 19.9926 9.75771 18.3294C9.75771 16.5601 11.1156 15.2022 12.7838 15.2022H53.5921C54.5515 15.2022 55.4119 14.6303 55.7846 13.7471C56.0948 13.0107 56.0165 12.1741 55.5744 11.508C55.1324 10.842 54.392 10.4445 53.5921 10.4445H12.7838C8.48601 10.4445 5 13.9305 5 18.2144V79.233C5 86.0108 10.514 91.5238 17.2907 91.5238H21.4369C22.3964 91.5238 23.2567 90.9529 23.6284 90.0687C23.9387 89.3323 51.1904 24.6502 51.1904 24.6502Z" fill="white"/>
</svg>
