<?xml version="1.0" encoding="UTF-8"?>
<svg width="247px" height="243px" viewBox="0 0 247 243" version="1.1" xmlns="http://www.w3.org/2000/svg" xmlns:xlink="http://www.w3.org/1999/xlink">
    <!-- Generator: Sketch 54.1 (76490) - https://sketchapp.com -->
    <title>noun_Free_1684223</title>
    <desc>Created with Sketch.</desc>
    <g id="Page-1" stroke="none" stroke-width="1" fill="none" fill-rule="evenodd">
        <g id="Artboard" transform="translate(-145.000000, -29.000000)" fill="#FFFFFF" fill-rule="nonzero">
            <g id="noun_Free_1684223" transform="translate(145.000000, 29.000000)">
                <g id="Group">
                    <path d="M107.134005,222.256094 C89.4033761,220.27438 74.5386837,214.556768 62.4877782,206.456666 L15.7989893,239.486403 C15.3486718,239.804978 14.7254353,239.698745 14.406085,239.248977 L0.1859002,219.221489 C-0.13383958,218.771172 -0.0279862,218.146918 0.4223303,217.827178 C0.4227986,217.826846 0.4232672,217.826514 0.4237361,217.826182 L231.201011,54.564017 C231.651328,54.2454422 232.274565,54.3516756 232.593915,54.8014435 L246.8141,74.8289316 C247.13384,75.2792481 247.027986,75.903502 246.57767,76.2232417 C246.577201,76.2235743 246.576733,76.2239064 246.576264,76.2242381 L175.60524,126.432315 C186.435163,135.040252 193.644656,147.162027 193.644656,165.387025 C193.644656,191.535464 177.304233,218.178163 133.728747,222.432815 L133.728747,242 C133.728747,242.552285 133.281032,243 132.728747,243 L108.134005,243 C107.58172,243 107.134005,242.552285 107.134005,242 L107.134005,222.256094 Z M107.134005,21.1944199 L107.134005,1 C107.134005,0.4477153 107.58172,0 108.134005,0 L132.728747,0 C133.281032,0 133.728747,0.4477153 133.728747,1 L133.728747,21.2248307 C156.951855,23.919523 175.450885,33.2804409 189.225837,47.7668571 L174.496441,65.7039328 C159.767046,49.5311597 139.145892,42.1798992 117.640974,42.1798992 C94.07394,42.1798992 77.2824292,54.8240672 77.2824292,73.3492437 C77.2824292,93.40733 101.346267,99.114268 127.587695,106.260241 L99.801779,125.38597 C74.5322482,117.478054 51.9478684,105.651151 51.9478684,74.8194958 C51.9478684,46.0075072 74.8543555,25.3614803 107.134005,21.1944199 Z M152.514023,142.768074 L83.4861296,191.601493 C94.313163,197.39797 107.260979,201.261176 122.059792,201.261176 C157.115754,201.261176 168.310095,182.44195 168.310095,167.445378 C168.310095,155.74704 162.084801,148.249007 152.514023,142.768074 Z" id="Shape"></path>
                </g>
            </g>
        </g>
    </g>
</svg>