<svg width="101" height="126" viewBox="0 0 101 126" fill="none" xmlns="http://www.w3.org/2000/svg">
<g clip-path="url(#clip0)">
<path d="M24.668 51.8522L31.6683 55.3833L38.9816 40.8826V95.4752H48.3261V61.2536H50.0452V95.4752H59.3896V40.8826L66.7029 55.3833L73.7033 51.8522L59.3896 23.4758H38.9821L24.668 51.8522Z" fill="white"/>
<path d="M49.1941 21.2734C45.0606 21.2734 41.2988 17.5152 41.2949 13.3817C41.291 9.24322 45.0556 5.4751 49.1941 5.4751C53.3325 5.4751 57.0971 9.24322 57.0932 13.3817C57.0893 17.5152 53.3276 21.2734 49.1941 21.2734Z" fill="white"/>
<path d="M72.392 54.1958L69.3918 55.7271L89.3928 95.4165L92.3929 93.9164L72.392 54.1958Z" fill="white"/>
</g>
<defs>
<clipPath id="clip0">
<rect width="100" height="125" fill="white" transform="translate(0.667969 0.475098)"/>
</clipPath>
</defs>
</svg>
