<svg width="41" height="51" viewBox="0 0 41 51" fill="none" xmlns="http://www.w3.org/2000/svg">
<path fill-rule="evenodd" clip-rule="evenodd" d="M23.3708 5.45332L20.4773 0L15.6919 5.45332H16.4707L17.5838 4.22901H20.9225L21.5901 5.45332H23.3708Z" fill="white"/>
<path fill-rule="evenodd" clip-rule="evenodd" d="M11.9079 2.78208H10.3499L12.5755 5.45313H14.6901L12.5755 3.11604C15.4693 3.11604 15.3577 1.44656 15.3577 1.44656C15.3577 0.111328 13.1322 0.111328 13.1322 0.111328H9.12559L8.12402 5.45313H9.90472L10.6836 0.556209H12.353C12.353 0.556209 13.4658 0.556209 13.4658 1.55778C13.4658 1.55778 13.4658 2.78208 11.9079 2.78208Z" fill="white"/>
<path fill-rule="evenodd" clip-rule="evenodd" d="M28.0449 0.667723H30.9384V0.111328H23.4819V0.667723H26.2642L25.3741 5.45313H27.1546L28.0449 0.667723Z" fill="white"/>
<path fill-rule="evenodd" clip-rule="evenodd" d="M33.0528 5.45313L33.3864 3.22726H35.7235C38.7285 3.22726 38.5058 1.44656 38.5058 1.44656C38.5058 0.111328 36.2799 0.111328 36.2799 0.111328H32.2736L31.3833 5.45313H33.0528Z" fill="white"/>
<path fill-rule="evenodd" clip-rule="evenodd" d="M13.2435 17.2498C15.5806 14.8012 18.9193 13.0208 22.5916 13.0208C29.7144 13.0208 35.3902 18.6966 35.3902 25.8191C35.3902 30.4933 32.8303 35.2787 29.0465 37.5043C28.4904 39.285 28.0449 40.6205 27.9337 42.9576C35.3902 40.7317 40.732 33.9432 40.732 25.8191C40.732 15.8031 32.7191 8.0127 22.5916 8.0127C16.9158 8.0127 11.908 10.5722 8.56934 14.69C8.56934 14.69 11.2401 15.4692 13.2435 17.2498Z" fill="white"/>
<path fill-rule="evenodd" clip-rule="evenodd" d="M10.2383 22.3692C9.9046 23.5935 9.79338 24.4839 9.79338 25.8194C9.79338 33.1646 15.5804 38.7289 22.7029 38.7289C22.2574 40.398 22.0349 41.6224 21.9237 43.5146C20.5882 43.5146 19.2527 43.4031 17.9174 43.0691C10.127 41.1772 4.34006 34.2774 4.45128 25.8194C4.45128 23.7047 4.67402 21.8128 5.45285 19.9209C5.45285 19.9209 8.23512 20.1436 10.2383 22.3692Z" fill="white"/>
<path fill-rule="evenodd" clip-rule="evenodd" d="M23.037 21.8125C23.037 21.8125 23.2594 23.0368 23.3706 23.9272C23.3706 23.9272 23.3706 24.1496 23.7046 24.2608L24.7062 24.5948C24.7062 24.5948 25.4853 24.8175 25.3741 25.5963L25.2626 26.8206C25.2626 26.8206 25.5965 26.153 26.2641 26.2643C26.2641 26.2643 27.0433 26.3755 27.0433 27.1546C27.0433 27.1546 27.0433 28.0449 27.2657 28.2674C27.2657 28.2674 27.4884 28.7126 28.824 28.8238C29.3804 28.9353 29.8255 29.269 29.8255 29.269C30.8271 30.0481 30.1595 31.2721 30.1595 31.2721C30.1595 31.2721 28.2676 35.3899 27.3772 39.2849C27.3772 39.2849 25.7074 45.5171 27.2657 50.0801H25.0398C22.4803 42.4012 27.4884 31.94 27.4884 31.94C27.4884 31.94 28.156 30.9381 27.3772 30.7157C27.0433 30.7157 27.0433 30.7157 26.7093 30.6045C26.7093 30.6045 25.4853 30.6045 25.7074 29.0465C25.9302 27.9334 25.0398 28.4901 25.0398 28.4901C24.0383 29.0465 23.927 28.1562 23.927 28.1562C23.927 27.8222 23.8158 27.1546 23.8158 27.1546C23.8158 26.7094 23.4819 26.7094 23.4819 26.7094L22.3691 26.3755C21.5899 26.2643 21.5899 25.4851 21.5899 25.4851L21.3675 23.482C21.3675 22.5916 20.4772 22.9253 20.4772 22.9253C20.032 23.0368 18.3625 23.2592 18.3625 23.2592C18.3625 23.2592 17.4724 23.482 16.0257 23.1483C14.9126 22.9253 13.5771 22.1465 11.9079 20.8109C10.3499 19.3642 8.34651 18.6966 8.34651 18.6966C4.22872 17.2498 0 19.0305 0 19.0305V16.6934C0 16.6934 3.5611 14.8012 8.56924 16.248C8.56924 16.248 11.0176 16.9156 13.7998 19.253C13.7998 19.253 14.6902 20.0318 15.803 20.5885C15.803 20.5885 16.8045 21.2561 18.474 21.0334C20.4772 20.6997 21.5899 20.6997 21.5899 20.6997C21.5899 20.6997 23.037 20.4773 23.037 21.8125Z" fill="white"/>
<path fill-rule="evenodd" clip-rule="evenodd" d="M20.5883 3.67279L19.5868 1.89209L18.0288 3.67279H20.5883Z" fill="#2A2E5F"/>
<path fill-rule="evenodd" clip-rule="evenodd" d="M33.9429 0.556152L33.498 2.78203H35.056C36.7252 2.78203 36.614 1.55772 36.614 1.55772C36.614 0.556152 35.6124 0.556152 35.6124 0.556152H33.9429Z" fill="#2A2E5F"/>
</svg>
