<svg width="19" height="19" viewBox="0 0 19 19" fill="none" xmlns="http://www.w3.org/2000/svg">
<path fill-rule="evenodd" clip-rule="evenodd" d="M0.990234 7.91935C0.990234 4.33567 3.90394 1.42334 7.48762 1.42334C11.0713 1.42334 13.9836 4.33567 13.9836 7.91935C13.9836 9.58515 13.3539 11.1054 12.3205 12.256L17.3923 17.3278C17.4873 17.4151 17.5268 17.5475 17.4952 17.6725C17.4636 17.7976 17.3659 17.8953 17.2408 17.9269C17.1157 17.9585 16.9834 17.919 16.8961 17.824L11.8242 12.7522C10.6736 13.7855 9.15334 14.4154 7.48762 14.4154C3.90394 14.4154 0.990234 11.503 0.990234 7.91935ZM13.2813 7.91935C13.2813 4.71523 10.6917 2.12599 7.48761 2.12599C4.28349 2.12599 1.69288 4.71523 1.69288 7.91935C1.69288 11.1235 4.28349 13.713 7.48761 13.713C10.6917 13.713 13.2813 11.1235 13.2813 7.91935Z" fill="#3A3D60" fill-opacity="0.6"/>
<path d="M12.3205 12.256L11.9485 11.9219L11.6318 12.2744L11.9669 12.6095L12.3205 12.256ZM17.3923 17.3278L17.0388 17.6814L17.0463 17.6889L17.0541 17.696L17.3923 17.3278ZM17.4952 17.6725L17.0105 17.55L17.0105 17.55L17.4952 17.6725ZM16.8961 17.824L17.2643 17.4858L17.2571 17.478L17.2497 17.4705L16.8961 17.824ZM11.8242 12.7522L12.1778 12.3986L11.8427 12.0635L11.4902 12.3802L11.8242 12.7522ZM7.48762 0.92334C3.62794 0.92334 0.490234 4.05939 0.490234 7.91935H1.49023C1.49023 4.61195 4.17995 1.92334 7.48762 1.92334V0.92334ZM14.4836 7.91935C14.4836 4.05953 11.3474 0.92334 7.48762 0.92334V1.92334C10.7952 1.92334 13.4836 4.61182 13.4836 7.91935H14.4836ZM12.6924 12.5901C13.8048 11.3516 14.4836 9.71362 14.4836 7.91935H13.4836C13.4836 9.45667 12.903 10.8591 11.9485 11.9219L12.6924 12.5901ZM17.7459 16.9743L12.674 11.9024L11.9669 12.6095L17.0388 17.6814L17.7459 16.9743ZM17.9799 17.7951C18.0566 17.4919 17.9609 17.1712 17.7306 16.9596L17.0541 17.696C17.0138 17.659 16.9971 17.603 17.0105 17.55L17.9799 17.7951ZM17.3634 18.4117C17.6666 18.335 17.9033 18.0983 17.9799 17.7951L17.0105 17.55C17.0239 17.497 17.0652 17.4556 17.1182 17.4422L17.3634 18.4117ZM16.5279 18.1623C16.7394 18.3926 17.0602 18.4883 17.3634 18.4117L17.1182 17.4422C17.1713 17.4288 17.2273 17.4455 17.2643 17.4858L16.5279 18.1623ZM11.4707 13.1057L16.5425 18.1776L17.2497 17.4705L12.1778 12.3986L11.4707 13.1057ZM7.48762 14.9154C9.28183 14.9154 10.9199 14.2364 12.1583 13.1242L11.4902 12.3802C10.4274 13.3346 9.02486 13.9154 7.48762 13.9154V14.9154ZM0.490234 7.91935C0.490234 11.7793 3.62794 14.9154 7.48762 14.9154V13.9154C4.17995 13.9154 1.49023 11.2267 1.49023 7.91935H0.490234ZM7.48761 2.62599C10.4156 2.62599 12.7813 4.99141 12.7813 7.91935H13.7813C13.7813 4.43905 10.9678 1.62599 7.48761 1.62599V2.62599ZM2.19288 7.91935C2.19288 4.99153 4.55948 2.62599 7.48761 2.62599V1.62599C4.0075 1.62599 1.19288 4.43893 1.19288 7.91935H2.19288ZM7.48761 13.213C4.55952 13.213 2.19288 10.8472 2.19288 7.91935H1.19288C1.19288 11.3997 4.00746 14.213 7.48761 14.213V13.213ZM12.7813 7.91935C12.7813 10.8473 10.4156 13.213 7.48761 13.213V14.213C10.9679 14.213 13.7813 11.3996 13.7813 7.91935H12.7813Z" fill="#3A3D60" fill-opacity="0.6"/>
</svg>
