<svg width="19" height="19" viewBox="0 0 19 19" fill="none" xmlns="http://www.w3.org/2000/svg">
<path d="M18.3549 18.2813L13.1857 12.8979C14.5042 11.5738 15.3211 9.74836 15.3211 7.73514C15.3211 3.70105 12.044 0.419434 8.01551 0.419434C3.98702 0.419434 0.709961 3.70105 0.709961 7.73514C0.709961 11.7692 3.98702 15.0509 8.01551 15.0509C9.7838 15.0509 11.4067 14.4179 12.6716 13.3675L17.8533 18.7641C17.9215 18.8355 18.0126 18.871 18.1041 18.871C18.1911 18.871 18.2777 18.8386 18.3452 18.7739C18.4837 18.6404 18.4878 18.4199 18.3549 18.2813ZM8.01551 14.3541C4.37074 14.3541 1.40573 11.385 1.40573 7.73514C1.40573 4.0853 4.37074 1.11617 8.01551 1.11617C11.6603 1.11617 14.6253 4.0853 14.6253 7.73514C14.6253 11.385 11.6599 14.3541 8.01551 14.3541Z" fill="black"/>
</svg>
