<svg width="96" height="91" viewBox="0 0 96 91" fill="none" xmlns="http://www.w3.org/2000/svg">
<g clip-path="url(#clip0)" filter="url(#filter0_d)">
<path d="M34.1076 29.2119C33.5285 27.6525 31.9633 26.7715 30.3721 26.7715C29.5778 26.7715 29.5045 26.7919 29.0315 26.7919H16.163C15.6898 26.7919 15.2693 26.7919 14.8217 26.7919C13.0045 26.7919 11.666 27.6523 11.0869 29.2119L4.21582 50.1073C3.56121 51.8703 4.44585 53.8359 6.19141 54.4969C7.9372 55.1583 9.88307 54.2648 10.5379 52.502L12.3647 47.5835C12.3647 47.5835 12.4951 47.0875 12.4951 49.2529V78.255C12.4951 80.7905 14.5303 82.8459 17.0412 82.8459C19.552 82.8459 21.5873 80.7905 21.5873 78.255V59.3078C21.5873 59.3078 21.5652 59.1403 21.7416 59.1403C22.1681 59.1403 23.0218 59.1403 23.4486 59.1403C23.617 59.1403 23.6077 59.3078 23.6077 59.3078V78.255C23.6077 80.7905 25.6429 82.8459 28.1538 82.8459C30.6647 82.8459 32.6999 80.7905 32.6999 78.255V49.2529C32.6999 47.0528 32.8909 47.746 32.8909 47.746L34.6573 52.5024C35.3117 54.2655 37.258 55.1588 39.0038 54.4974C40.7494 53.8359 41.6342 51.8708 40.9794 50.108L34.1076 29.2119Z" fill="white"/>
<path d="M22.6875 24.474C28.0782 24.474 32.4482 20.1489 32.4482 14.8137C32.4482 9.4784 28.0782 5.15332 22.6875 5.15332C17.2968 5.15332 12.9268 9.4784 12.9268 14.8137C12.9268 20.1489 17.2968 24.474 22.6875 24.474Z" fill="white"/>
<path d="M72.4854 24.5205C77.8761 24.5205 82.2461 20.1505 82.2461 14.7598C82.2461 9.36905 77.8761 4.99902 72.4854 4.99902C67.0946 4.99902 62.7246 9.36905 62.7246 14.7598C62.7246 20.1505 67.0946 24.5205 72.4854 24.5205Z" fill="white"/>
<path d="M91.6779 49.6453L83.3496 29.3583C82.8732 28.3347 82.4517 26.9629 80.4948 26.9629C79.7719 26.9629 79.0553 26.9629 78.2274 26.9629H68.0354C67.1917 26.9629 66.7532 26.9629 65.714 26.9629C63.7622 26.9629 62.7438 28.2347 62.1853 29.3803L53.5347 49.514C52.7109 51.2044 53.3991 53.2466 55.0708 54.0759C56.7438 54.905 58.768 54.207 59.5918 52.5161L60.2428 51.1812C60.2428 51.1812 60.445 50.8211 60.3691 51.2193C59.8982 53.6988 58.5981 61.1571 58.5981 61.1571C58.2823 62.7091 59.3191 63.979 60.9029 63.979C60.9029 63.979 63.7284 63.979 64.6701 63.979C64.9396 63.979 64.8917 64.1822 64.8917 64.1822V79.1736C64.8917 81.6845 66.4554 83.0009 68.3852 83.0009C70.3143 83.0009 71.879 81.6845 71.879 79.1736V64.1223C71.879 64.1223 71.8711 63.9737 72.0282 63.979C72.2312 63.9855 72.7449 63.98 72.9752 63.98C73.1065 63.98 73.0899 64.1381 73.0899 64.1381V79.1736C73.0899 81.6845 74.6546 83.0009 76.5844 83.0009C78.5135 83.0009 80.0779 81.6845 80.0779 79.1736V64.2222C80.0779 64.2222 80.0549 63.979 80.3444 63.979C81.3577 63.979 84.3967 63.979 84.3967 63.979C85.9802 63.979 87.0427 62.7043 86.7571 61.1463C86.7571 61.1463 85.4541 53.147 85.1069 50.9677C85.0074 50.343 86.0452 52.5611 86.0452 52.5611C86.8388 54.2659 88.3713 54.9778 90.0584 54.1792C91.7469 53.3803 92.4715 51.3508 91.6779 49.6453Z" fill="white"/>
<path d="M49.632 81.169C49.632 82.0915 48.8774 82.8463 47.9547 82.8463H47.2359C46.3134 82.8463 45.5586 82.0915 45.5586 81.169V7.69485C45.5586 6.77235 46.3134 6.01758 47.2359 6.01758H47.9547C48.8772 6.01758 49.632 6.77235 49.632 7.69485V81.169Z" fill="white"/>
</g>
<defs>
<filter id="filter0_d" x="0" y="0" width="96" height="96" filterUnits="userSpaceOnUse" color-interpolation-filters="sRGB">
<feFlood flood-opacity="0" result="BackgroundImageFix"/>
<feColorMatrix in="SourceAlpha" type="matrix" values="0 0 0 0 0 0 0 0 0 0 0 0 0 0 0 0 0 0 127 0"/>
<feOffset dy="4"/>
<feGaussianBlur stdDeviation="2"/>
<feColorMatrix type="matrix" values="0 0 0 0 0 0 0 0 0 0 0 0 0 0 0 0 0 0 0.25 0"/>
<feBlend mode="normal" in2="BackgroundImageFix" result="effect1_dropShadow"/>
<feBlend mode="normal" in="SourceGraphic" in2="effect1_dropShadow" result="shape"/>
</filter>
<clipPath id="clip0">
<rect width="88" height="88" fill="white" transform="translate(4)"/>
</clipPath>
</defs>
</svg>
