<svg width="20" height="26" viewBox="0 0 20 26" fill="none" xmlns="http://www.w3.org/2000/svg">
    <path d="M14.7892 6.33111C14.8118 6.33194 14.8346 6.33131 14.8566 6.33235C15.894 6.33235 16.7884 5.39635 16.8528 4.24466C16.8548 4.22656 16.8558 4.20764 16.8554 4.18788C16.8558 4.16853 16.855 4.14981 16.853 4.13192C16.7902 2.96317 15.9274 2.08583 14.7996 2.04464C13.7074 2.00471 12.7744 2.97815 12.7336 4.18226C12.7144 4.74989 12.9304 5.28778 13.3422 5.6965C13.7288 6.08047 14.2562 6.31176 14.7892 6.33111ZM13.4678 4.18247C13.4556 3.82304 13.5932 3.48192 13.8554 3.22172C14.1072 2.9717 14.4514 2.8209 14.7998 2.80821L14.8426 2.80738C15.6012 2.80738 16.096 3.5229 16.1212 4.18808C16.0924 4.9608 15.533 5.54071 14.7892 5.56795L14.7462 5.56879C13.9856 5.56879 13.4904 4.84911 13.4678 4.18247Z"
          fill="white"/>
    <path d="M7.21029 9.53377L7.34329 9.51942C7.30949 8.07735 6.47489 6.87303 5.16509 6.37612C5.02109 6.32142 4.87209 6.28086 4.72029 6.2507C5.52029 6.00068 6.14189 5.19759 6.19509 4.24516C6.19709 4.22706 6.19809 4.20814 6.19769 4.18838C6.19809 4.16903 6.19729 4.15031 6.19529 4.13263C6.13249 2.96388 5.26989 2.08633 4.14189 2.04514C3.05049 2.005 2.11649 2.97865 2.07589 4.18276C2.05669 4.75039 2.27269 5.28828 2.68429 5.697C2.94449 5.95534 3.26909 6.14254 3.61589 6.24446C2.79729 6.39193 2.04129 6.86346 1.56269 7.54841C0.929688 8.45383 0.929688 9.46638 0.929688 10.3597V12.8154C0.929688 13.0261 1.09429 13.1973 1.29669 13.1973H2.85729V18.5554C2.85729 18.7658 3.02209 18.9372 3.22449 18.9372H5.04889C5.25129 18.9372 5.41569 18.7658 5.41569 18.5554V13.1973H6.97629C7.17869 13.1973 7.34349 13.0259 7.34349 12.8154V9.54708L7.21229 9.54562L7.34349 9.53543H7.31049L7.34349 9.5321L7.21029 9.53377ZM4.68149 12.8154V18.1737H3.59169V12.8154C3.59169 12.6049 3.42689 12.4337 3.22449 12.4337H1.66389V10.9525C1.66389 10.7918 1.66009 10.6278 1.65629 10.4623C1.64349 9.8986 1.63009 9.31578 1.76789 8.79433C2.05229 7.71959 3.05289 6.96871 4.20149 6.96871C4.25609 6.96871 4.31109 6.97038 4.36589 6.97391C5.57569 7.05233 6.58189 8.20194 6.60929 9.53689V12.4333H5.04869C4.84629 12.4337 4.68149 12.6049 4.68149 12.8154ZM2.80989 4.18276C2.79769 3.82334 2.93529 3.48222 3.19749 3.22201C3.44929 2.97199 3.79349 2.82119 4.14209 2.8085L4.18489 2.80767C4.94349 2.80767 5.43829 3.52319 5.46329 4.18838C5.43449 4.9611 4.87529 5.541 4.13149 5.56825L4.08849 5.56908C3.32769 5.56908 2.83249 4.8494 2.80989 4.18276Z"
          fill="white"/>
    <path d="M9.28106 1.64941C9.07186 1.64941 8.91406 1.81041 8.91406 2.02381V18.5552C8.91406 18.7689 9.07186 18.9298 9.28106 18.9298C9.49026 18.9298 9.64806 18.7689 9.64806 18.5552V2.02381C9.64826 1.81041 9.49046 1.64941 9.28106 1.64941Z"
          fill="white"/>
    <path d="M18.7262 13.7853L18.1772 10.5931C18.1552 10.4648 18.1342 10.3369 18.1136 10.2096C17.9156 8.99735 17.7288 7.85231 16.6674 7.02634C16.1042 6.58788 15.444 6.35596 14.7584 6.35596C13.409 6.35596 12.2278 7.26325 11.8192 8.61338C11.7358 8.88919 11.69 9.18101 11.6456 9.46285C11.6274 9.57871 11.6094 9.69373 11.5888 9.80647L10.8648 13.7836C10.8424 13.9061 10.8716 14.0293 10.9448 14.1212C11.0132 14.2073 11.1116 14.2548 11.2214 14.2548H11.4784L11.516 14.3059L11.5252 14.2548H13.5162V18.5554C13.5162 18.7661 13.681 18.9373 13.8834 18.9373H15.7074C15.91 18.9373 16.0746 18.7659 16.0746 18.5554V14.2548H18.3692C18.551 14.2548 18.6926 14.13 18.7234 13.9436C18.7346 13.8926 18.7354 13.8392 18.7262 13.7853ZM15.3404 13.8727V18.1737H14.2504V13.8727C14.2504 13.6622 14.0858 13.4908 13.8836 13.4908H11.6642L12.4466 9.19266C12.606 8.31615 13.0594 7.67946 13.7944 7.30049C14.0754 7.15551 14.3796 7.08188 14.698 7.08188C15.4068 7.08188 16.149 7.44983 16.6832 8.06613C17.0768 8.51978 17.1796 9.1182 17.279 9.69706L17.9312 13.4906H15.7072C15.505 13.4908 15.3404 13.6622 15.3404 13.8727Z"
          fill="white"/>
</svg>
