<svg width="24" height="31" viewBox="0 0 24 31" fill="none" xmlns="http://www.w3.org/2000/svg">
<g clip-path="url(#clip0)">
<path d="M10.5098 21.2783H13.4906H17.0697H22.8002V15.8587C22.8002 14.4677 22.0473 13.2552 20.9407 12.633C21.2625 12.1063 21.4516 11.4845 21.4516 10.8167C21.4516 9.25575 20.4324 7.93912 19.0464 7.5324C19.0795 7.33871 19.0999 7.14056 19.0999 6.93744C19.0999 5.05364 17.6167 3.521 15.7936 3.521C14.4218 3.521 13.2429 4.38924 12.7432 5.62156C12.5035 5.56923 12.2551 5.54046 12.0004 5.54046C11.7292 5.54046 11.466 5.57444 11.2118 5.63371C10.6896 4.45596 9.54068 3.63408 8.207 3.63408C6.38396 3.63408 4.90076 5.16672 4.90076 7.05053C4.90076 7.21595 4.91612 7.3774 4.9382 7.53661C3.56036 7.94879 2.549 9.2617 2.549 10.8167C2.549 11.4845 2.73812 12.106 3.05996 12.6328C1.95308 13.2552 1.2002 14.4677 1.2002 15.8587V21.278H6.93068H10.5098V21.2783ZM13.4906 20.2297H10.5098V15.8587C10.5098 14.4766 9.76604 13.2716 8.67092 12.6459C8.93588 12.3664 9.26108 12.1497 9.6242 12.0143C10.2576 12.5953 11.0884 12.9517 12 12.9517C12.9115 12.9517 13.7424 12.5953 14.3757 12.0143C14.7388 12.1497 15.064 12.3664 15.329 12.6459C14.2339 13.2716 13.4901 14.4766 13.4901 15.8587V20.2297H13.4906ZM21.7855 15.8587V20.2297H16.0552H14.5053V15.8587C14.5053 14.7802 15.1394 13.8522 16.0423 13.4504C16.6142 13.939 17.3474 14.2329 18.1456 14.2329C18.9439 14.2329 19.6768 13.939 20.249 13.4504C21.1516 13.8524 21.7855 14.7802 21.7855 15.8587ZM20.4369 10.8167C20.4369 12.1221 19.409 13.1846 18.1454 13.1846C16.8818 13.1846 15.8539 12.1224 15.8539 10.8167C15.8539 9.51094 16.8818 8.44876 18.1454 8.44876C19.409 8.44876 20.4369 9.51094 20.4369 10.8167ZM15.7936 4.56954C17.0572 4.56954 18.0852 5.63172 18.0852 6.93744C18.0852 7.0979 18.0693 7.25439 18.0398 7.40567C17.0277 7.4389 16.1301 7.94259 15.545 8.71387C15.3794 7.53264 14.6767 6.52924 13.698 5.98314C14.0539 5.15184 14.8586 4.56954 15.7936 4.56954ZM12.0002 6.589C13.4181 6.589 14.5716 7.78114 14.5716 9.24632C14.5716 10.7115 13.4181 11.9034 12.0002 11.9034C10.5823 11.9034 9.42884 10.7115 9.42884 9.24632C9.42884 7.78114 10.5823 6.589 12.0002 6.589ZM8.207 4.68263C9.1082 4.68263 9.88724 5.22451 10.2614 6.00819C9.30452 6.55924 8.61884 7.55 8.45564 8.71412C7.86716 7.93862 6.96308 7.43295 5.9438 7.40492C5.92676 7.28911 5.91524 7.17131 5.91524 7.05053C5.91524 5.74481 6.9434 4.68263 8.207 4.68263ZM5.855 8.44876C7.11836 8.44876 8.14652 9.51094 8.14652 10.8167C8.14652 12.1221 7.1186 13.1846 5.855 13.1846C4.5914 13.1846 3.56348 12.1224 3.56348 10.8167C3.56348 9.51094 4.59164 8.44876 5.855 8.44876ZM2.21492 15.8587C2.21492 14.7802 2.849 13.8522 3.75188 13.4504C4.3238 13.939 5.057 14.2329 5.85524 14.2329C6.65348 14.2329 7.38644 13.939 7.9586 13.4504C8.86148 13.8522 9.49556 14.7799 9.49556 15.8587V20.2297H7.94564H2.21492V15.8587Z" fill="white"/>
</g>
<defs>
<clipPath id="clip0">
<rect width="24" height="31" fill="white"/>
</clipPath>
</defs>
</svg>
