<svg width="32" height="32" viewBox="0 0 32 32" fill="none" xmlns="http://www.w3.org/2000/svg">
<g clip-path="url(#clip0)">
<path d="M14.6551 6.30686C16.3949 6.30686 17.8084 4.89501 17.8084 3.15346C17.8084 1.41139 16.3949 0 14.6551 0C12.9133 0 11.501 1.41139 11.501 3.15346C11.501 4.89501 12.9133 6.30686 14.6551 6.30686Z" fill="white"/>
<path d="M19.5286 24.1761C18.6906 27.0857 16.0083 29.2224 12.8326 29.2224C8.98679 29.2224 5.85928 26.0948 5.85928 22.2502C5.85928 19.4042 7.57618 16.9548 10.0264 15.8724V12.9165C6.01382 14.1251 3.08203 17.8499 3.08203 22.2502C3.08203 27.626 7.45604 32.0001 12.8325 32.0001C16.7506 32.0001 20.1278 29.6714 21.6763 26.3302L20.5753 24.1672C20.2663 24.1697 19.9083 24.173 19.5286 24.1761Z" fill="white"/>
<path d="M28.7157 27.9193L24.4918 19.615C24.1765 18.9936 23.5392 18.6025 22.8421 18.6025H17.4322V17.3689H22.0881C22.5531 17.3689 22.9439 17.1259 23.1963 16.7758C23.3603 16.5478 23.477 16.2828 23.477 15.9799C23.477 15.2131 22.8559 14.5912 22.0881 14.5912H19.2831H17.4322V10.407C17.4322 9.25627 16.5789 7.62939 14.6555 7.62939C13.1215 7.62939 11.8779 8.87317 11.8779 10.407V19.4723C11.8779 21.0372 13.1465 22.3057 14.7114 22.3057H19.802H21.7068L25.4159 29.5982C25.7418 30.2406 26.3922 30.6112 27.0673 30.6112C27.3502 30.6112 27.6371 30.5465 27.9052 30.4093C28.818 29.9463 29.1806 28.8308 28.7157 27.9193Z" fill="white"/>
</g>
<defs>
<clipPath id="clip0">
<rect width="32" height="32" fill="white"/>
</clipPath>
</defs>
</svg>
