<svg width="24" height="24" viewBox="0 0 24 24" fill="none" xmlns="http://www.w3.org/2000/svg">
<g clip-path="url(#clip0)">
<path fill-rule="evenodd" clip-rule="evenodd" d="M8.88408 6.57373C7.71447 6.57373 6.75293 7.53527 6.75293 8.70489V15.065C6.75293 16.3993 7.82904 17.1889 9.0415 17.1889H13.4926L15.0276 20.3263C15.3419 20.9138 15.6615 21.3506 16.3842 21.3506H20.3322C21.1063 21.3506 21.741 20.712 21.741 19.9394C21.741 19.1668 21.1048 18.5307 20.3322 18.5307H17.2884L15.6446 15.172C15.4062 14.7592 15.0083 14.3827 14.373 14.369H11.0128V12.5137H14.433C15.2067 12.5137 15.8441 11.8775 15.8441 11.1049C15.8441 10.3323 15.2082 9.69377 14.433 9.69377H11.0128V8.70489C11.0128 7.53611 10.0537 6.57373 8.88408 6.57373V6.57373ZM8.88408 7.5336C9.52886 7.5336 10.053 8.05924 10.053 8.70489V10.1737C10.053 10.4627 10.2532 10.6536 10.5329 10.6536H14.433C14.6849 10.6536 14.8842 10.8551 14.8842 11.1049C14.8842 11.3547 14.6864 11.5538 14.433 11.5538H10.5329C10.2287 11.5538 10.053 11.7851 10.053 12.0337V14.849C10.053 15.1401 10.2756 15.3289 10.5329 15.3289H14.373C14.5732 15.3289 14.6937 15.4388 14.777 15.5831L16.5579 19.2216C16.5971 19.3017 16.6592 19.3705 16.7349 19.4178C16.8106 19.465 16.8997 19.4905 16.989 19.4905H20.3322C20.582 19.4905 20.7811 19.6896 20.7811 19.9394C20.7811 20.1892 20.5805 20.3907 20.3322 20.3907H16.4967C16.2115 20.3907 16.0648 20.2463 15.9104 19.9469L14.2232 16.4981C14.184 16.4179 14.1219 16.3491 14.0462 16.3018C13.9705 16.2546 13.8814 16.2291 13.7921 16.2291H9.03048C8.3185 16.2291 7.71281 15.7889 7.71281 15.065V8.70489C7.71281 8.06009 8.23927 7.5336 8.88408 7.5336V7.5336Z" fill="white"/>
<path fill-rule="evenodd" clip-rule="evenodd" d="M8.88373 1.43994C7.51335 1.43994 6.39258 2.56071 6.39258 3.93108C6.39258 5.29961 7.51335 6.41984 8.88373 6.41984C10.2523 6.41984 11.3725 5.29961 11.3725 3.93108C11.3725 2.56071 10.2523 1.43994 8.88373 1.43994ZM8.88373 2.39979C9.7328 2.39979 10.4126 3.07903 10.4126 3.93108C10.4126 4.78018 9.7328 5.45998 8.88373 5.45998C8.03168 5.45998 7.35243 4.78018 7.35243 3.93108C7.35243 3.07903 8.03168 2.39979 8.88373 2.39979V2.39979Z" fill="white"/>
<path fill-rule="evenodd" clip-rule="evenodd" d="M5.65451 10.3805C3.84359 11.365 2.52887 13.1958 2.29595 15.3981C2.29595 15.3982 2.29595 15.3982 2.29595 15.3982C1.92069 18.9515 4.50724 22.1483 8.06053 22.5236C10.3432 22.7643 12.4821 21.7853 13.8145 20.1107C14.197 19.5947 13.4693 19.0593 13.0633 19.5131C11.9285 20.9393 10.1122 21.7747 8.16126 21.569C5.12411 21.2482 2.92986 18.5362 3.25055 15.4991C3.25055 15.4991 3.25055 15.499 3.25055 15.499C3.44968 13.6165 4.56865 12.0634 6.11298 11.2238C6.68512 10.8935 6.16254 10.1466 5.65451 10.3805V10.3805Z" fill="white"/>
</g>
<defs>
<clipPath id="clip0">
<rect width="24" height="24" fill="white"/>
</clipPath>
</defs>
</svg>
